<svg width="21" height="20" viewBox="0 0 21 20" fill="none" xmlns="http://www.w3.org/2000/svg">
<g clip-path="url(#clip0_5008_9632)">
<path d="M19.6654 9.16723H17.9987V7.50057C17.9987 7.27955 17.9109 7.06759 17.7546 6.91131C17.5983 6.75503 17.3864 6.66724 17.1654 6.66724C16.9443 6.66724 16.7324 6.75503 16.5761 6.91131C16.4198 7.06759 16.332 7.27955 16.332 7.50057V9.16723H14.6654C14.4443 9.16723 14.2324 9.25503 14.0761 9.41131C13.9198 9.56759 13.832 9.77955 13.832 10.0006C13.832 10.2216 13.9198 10.4335 14.0761 10.5898C14.2324 10.7461 14.4443 10.8339 14.6654 10.8339H16.332V12.5006C16.332 12.7216 16.4198 12.9335 16.5761 13.0898C16.7324 13.2461 16.9443 13.3339 17.1654 13.3339C17.3864 13.3339 17.5983 13.2461 17.7546 13.0898C17.9109 12.9335 17.9987 12.7216 17.9987 12.5006V10.8339H19.6654C19.8864 10.8339 20.0983 10.7461 20.2546 10.5898C20.4109 10.4335 20.4987 10.2216 20.4987 10.0006C20.4987 9.77955 20.4109 9.56759 20.2546 9.41131C20.0983 9.25503 19.8864 9.16723 19.6654 9.16723Z" fill="white"/>
<path d="M8 10C8.98891 10 9.95561 9.70676 10.7779 9.15735C11.6001 8.60794 12.241 7.82705 12.6194 6.91342C12.9978 5.99979 13.0969 4.99446 12.9039 4.02455C12.711 3.05465 12.2348 2.16373 11.5355 1.46447C10.8363 0.765206 9.94536 0.289002 8.97545 0.0960758C8.00555 -0.0968503 7.00021 0.00216643 6.08658 0.380605C5.17295 0.759043 4.39206 1.39991 3.84265 2.22215C3.29324 3.0444 3 4.0111 3 5C3.00132 6.32568 3.52853 7.59668 4.46593 8.53407C5.40332 9.47147 6.67432 9.99868 8 10ZM8 1.66667C8.65927 1.66667 9.30374 1.86217 9.8519 2.22844C10.4001 2.59471 10.8273 3.1153 11.0796 3.72439C11.3319 4.33348 11.3979 5.0037 11.2693 5.6503C11.1407 6.29691 10.8232 6.89085 10.357 7.35703C9.89085 7.8232 9.2969 8.14067 8.6503 8.26929C8.0037 8.3979 7.33348 8.33189 6.72439 8.0796C6.1153 7.82731 5.59471 7.40007 5.22843 6.8519C4.86216 6.30374 4.66667 5.65927 4.66667 5C4.66667 4.11595 5.01786 3.2681 5.64298 2.64298C6.2681 2.01786 7.11595 1.66667 8 1.66667Z" fill="white"/>
<path d="M8 11.6672C6.01155 11.6694 4.10518 12.4603 2.69914 13.8664C1.29309 15.2724 0.502206 17.1788 0.5 19.1672C0.5 19.3882 0.587797 19.6002 0.744078 19.7565C0.900358 19.9128 1.11232 20.0006 1.33333 20.0006C1.55435 20.0006 1.76631 19.9128 1.92259 19.7565C2.07887 19.6002 2.16667 19.3882 2.16667 19.1672C2.16667 17.6201 2.78125 16.1364 3.87521 15.0424C4.96917 13.9485 6.4529 13.3339 8 13.3339C9.5471 13.3339 11.0308 13.9485 12.1248 15.0424C13.2188 16.1364 13.8333 17.6201 13.8333 19.1672C13.8333 19.3882 13.9211 19.6002 14.0774 19.7565C14.2337 19.9128 14.4457 20.0006 14.6667 20.0006C14.8877 20.0006 15.0996 19.9128 15.2559 19.7565C15.4122 19.6002 15.5 19.3882 15.5 19.1672C15.4978 17.1788 14.7069 15.2724 13.3009 13.8664C11.8948 12.4603 9.98845 11.6694 8 11.6672Z" fill="white"/>
</g>
<defs>
<clipPath id="clip0_5008_9632">
<rect width="20" height="20" fill="white" transform="translate(0.5)"/>
</clipPath>
</defs>
</svg>
