<svg width="21" height="20" viewBox="0 0 21 20" fill="none" xmlns="http://www.w3.org/2000/svg">
<g clip-path="url(#clip0_5008_11758)">
<path d="M19.6654 9.16699H17.9987V7.50032C17.9987 7.27931 17.9109 7.06735 17.7546 6.91107C17.5983 6.75479 17.3864 6.66699 17.1654 6.66699C16.9443 6.66699 16.7324 6.75479 16.5761 6.91107C16.4198 7.06735 16.332 7.27931 16.332 7.50032V9.16699H14.6654C14.4443 9.16699 14.2324 9.25478 14.0761 9.41106C13.9198 9.56734 13.832 9.77931 13.832 10.0003C13.832 10.2213 13.9198 10.4333 14.0761 10.5896C14.2324 10.7459 14.4443 10.8337 14.6654 10.8337H16.332V12.5003C16.332 12.7213 16.4198 12.9333 16.5761 13.0896C16.7324 13.2458 16.9443 13.3336 17.1654 13.3336C17.3864 13.3336 17.5983 13.2458 17.7546 13.0896C17.9109 12.9333 17.9987 12.7213 17.9987 12.5003V10.8337H19.6654C19.8864 10.8337 20.0983 10.7459 20.2546 10.5896C20.4109 10.4333 20.4987 10.2213 20.4987 10.0003C20.4987 9.77931 20.4109 9.56734 20.2546 9.41106C20.0983 9.25478 19.8864 9.16699 19.6654 9.16699Z" fill="#254D55"/>
<path d="M8 10C8.98891 10 9.95561 9.70676 10.7779 9.15735C11.6001 8.60794 12.241 7.82705 12.6194 6.91342C12.9978 5.99979 13.0969 4.99446 12.9039 4.02455C12.711 3.05465 12.2348 2.16373 11.5355 1.46447C10.8363 0.765206 9.94536 0.289002 8.97545 0.0960758C8.00555 -0.0968503 7.00021 0.00216643 6.08658 0.380605C5.17295 0.759043 4.39206 1.39991 3.84265 2.22215C3.29324 3.0444 3 4.0111 3 5C3.00132 6.32568 3.52853 7.59668 4.46593 8.53407C5.40332 9.47147 6.67432 9.99868 8 10ZM8 1.66667C8.65927 1.66667 9.30374 1.86217 9.8519 2.22844C10.4001 2.59471 10.8273 3.1153 11.0796 3.72439C11.3319 4.33348 11.3979 5.0037 11.2693 5.6503C11.1407 6.29691 10.8232 6.89085 10.357 7.35703C9.89085 7.8232 9.2969 8.14067 8.6503 8.26929C8.0037 8.3979 7.33348 8.33189 6.72439 8.0796C6.1153 7.82731 5.59471 7.40007 5.22843 6.8519C4.86216 6.30374 4.66667 5.65927 4.66667 5C4.66667 4.11595 5.01786 3.2681 5.64298 2.64298C6.2681 2.01786 7.11595 1.66667 8 1.66667Z" fill="#254D55"/>
<path d="M8 11.667C6.01155 11.6692 4.10518 12.4601 2.69914 13.8661C1.29309 15.2722 0.502206 17.1785 0.5 19.167C0.5 19.388 0.587797 19.6 0.744078 19.7562C0.900358 19.9125 1.11232 20.0003 1.33333 20.0003C1.55435 20.0003 1.76631 19.9125 1.92259 19.7562C2.07887 19.6 2.16667 19.388 2.16667 19.167C2.16667 17.6199 2.78125 16.1362 3.87521 15.0422C4.96917 13.9482 6.4529 13.3337 8 13.3337C9.5471 13.3337 11.0308 13.9482 12.1248 15.0422C13.2188 16.1362 13.8333 17.6199 13.8333 19.167C13.8333 19.388 13.9211 19.6 14.0774 19.7562C14.2337 19.9125 14.4457 20.0003 14.6667 20.0003C14.8877 20.0003 15.0996 19.9125 15.2559 19.7562C15.4122 19.6 15.5 19.388 15.5 19.167C15.4978 17.1785 14.7069 15.2722 13.3009 13.8661C11.8948 12.4601 9.98845 11.6692 8 11.667Z" fill="#254D55"/>
</g>
<defs>
<clipPath id="clip0_5008_11758">
<rect width="20" height="20" fill="white" transform="translate(0.5)"/>
</clipPath>
</defs>
</svg>
