<svg width="21" height="20" viewBox="0 0 21 20" fill="none" xmlns="http://www.w3.org/2000/svg">
<g clip-path="url(#clip0_5008_11961)">
<path d="M19.7675 7.56191L13.4467 1.23645C12.6644 0.455975 11.6047 0.0177002 10.5 0.0177002C9.39529 0.0177002 8.33564 0.455975 7.55334 1.23645L1.23251 7.56191C0.999531 7.79353 0.814818 8.06913 0.689079 8.37271C0.563339 8.6763 0.499075 9.00184 0.50001 9.33047L0.50001 17.5162C0.50001 18.1796 0.763402 18.8159 1.23224 19.285C1.70108 19.7542 2.33697 20.0177 3.00001 20.0177H18C18.6631 20.0177 19.2989 19.7542 19.7678 19.285C20.2366 18.8159 20.5 18.1796 20.5 17.5162V9.33047C20.5009 9.00184 20.4367 8.6763 20.3109 8.37271C20.1852 8.06913 20.0005 7.79353 19.7675 7.56191ZM13 18.35H8.00001V15.0697C8.00001 14.4063 8.2634 13.77 8.73224 13.3009C9.20109 12.8318 9.83697 12.5682 10.5 12.5682C11.1631 12.5682 11.7989 12.8318 12.2678 13.3009C12.7366 13.77 13 14.4063 13 15.0697V18.35ZM18.8333 17.5162C18.8333 17.7373 18.7455 17.9494 18.5893 18.1058C18.433 18.2622 18.221 18.35 18 18.35H14.6667V15.0697C14.6667 13.964 14.2277 12.9036 13.4463 12.1217C12.6649 11.3398 11.6051 10.9006 10.5 10.9006C9.39494 10.9006 8.33513 11.3398 7.55373 12.1217C6.77233 12.9036 6.33334 13.964 6.33334 15.0697V18.35H3.00001C2.779 18.35 2.56703 18.2622 2.41075 18.1058C2.25447 17.9494 2.16668 17.7373 2.16668 17.5162V9.33047C2.16745 9.10948 2.25517 8.89769 2.41084 8.74095L8.73168 2.41799C9.20143 1.95015 9.83723 1.68751 10.5 1.68751C11.1628 1.68751 11.7986 1.95015 12.2683 2.41799L18.5892 8.74345C18.7442 8.89958 18.8319 9.11035 18.8333 9.33047V17.5162Z" fill="#254D55"/>
</g>
<defs>
<clipPath id="clip0_5008_11961">
<rect width="20" height="20" fill="white" transform="translate(0.5)"/>
</clipPath>
</defs>
</svg>
