<svg width="21" height="20" viewBox="0 0 21 20" fill="none" xmlns="http://www.w3.org/2000/svg">
<g clip-path="url(#clip0_5008_8631)">
<path d="M19.7675 7.56203L13.4467 1.23657C12.6644 0.456097 11.6047 0.0178223 10.5 0.0178223C9.39529 0.0178223 8.33564 0.456097 7.55334 1.23657L1.23251 7.56203C0.999531 7.79365 0.814818 8.06925 0.689079 8.37284C0.563339 8.67642 0.499075 9.00196 0.50001 9.33059L0.50001 17.5163C0.50001 18.1798 0.763402 18.816 1.23224 19.2852C1.70108 19.7543 2.33697 20.0178 3.00001 20.0178H18C18.6631 20.0178 19.2989 19.7543 19.7678 19.2852C20.2366 18.816 20.5 18.1798 20.5 17.5163V9.33059C20.5009 9.00196 20.4367 8.67642 20.3109 8.37284C20.1852 8.06925 20.0005 7.79365 19.7675 7.56203ZM13 18.3502H8.00001V15.0699C8.00001 14.4064 8.2634 13.7702 8.73224 13.301C9.20109 12.8319 9.83697 12.5684 10.5 12.5684C11.1631 12.5684 11.7989 12.8319 12.2678 13.301C12.7366 13.7702 13 14.4064 13 15.0699V18.3502ZM18.8333 17.5163C18.8333 17.7375 18.7455 17.9496 18.5893 18.1059C18.433 18.2623 18.221 18.3502 18 18.3502H14.6667V15.0699C14.6667 13.9641 14.2277 12.9037 13.4463 12.1218C12.6649 11.3399 11.6051 10.9007 10.5 10.9007C9.39494 10.9007 8.33513 11.3399 7.55373 12.1218C6.77233 12.9037 6.33334 13.9641 6.33334 15.0699V18.3502H3.00001C2.779 18.3502 2.56703 18.2623 2.41075 18.1059C2.25447 17.9496 2.16668 17.7375 2.16668 17.5163V9.33059C2.16745 9.1096 2.25517 8.89782 2.41084 8.74107L8.73168 2.41811C9.20143 1.95028 9.83723 1.68763 10.5 1.68763C11.1628 1.68763 11.7986 1.95028 12.2683 2.41811L18.5892 8.74357C18.7442 8.8997 18.8319 9.11047 18.8333 9.33059V17.5163Z" fill="white"/>
</g>
<defs>
<clipPath id="clip0_5008_8631">
<rect width="20" height="20" fill="white" transform="translate(0.5)"/>
</clipPath>
</defs>
</svg>
