<svg width="21" height="20" viewBox="0 0 21 20" fill="none" xmlns="http://www.w3.org/2000/svg">
<g clip-path="url(#clip0_5008_21630)">
<path d="M17.1263 4.61335L14.2213 1.70835C13.681 1.16509 13.0382 0.734374 12.3303 0.44114C11.6224 0.147906 10.8634 -0.00202547 10.0971 2.06635e-05H6.33464C5.22997 0.00134388 4.17093 0.440756 3.38982 1.22187C2.6087 2.00299 2.16929 3.06203 2.16797 4.16669V15.8334C2.16929 16.938 2.6087 17.9971 3.38982 18.7782C4.17093 19.5593 5.22997 19.9987 6.33464 20H14.668C15.7726 19.9987 16.8317 19.5593 17.6128 18.7782C18.3939 17.9971 18.8333 16.938 18.8346 15.8334V8.73752C18.8367 7.97129 18.6868 7.21225 18.3935 6.50434C18.1003 5.79643 17.6696 5.15371 17.1263 4.61335ZM15.948 5.79169C16.2022 6.0537 16.421 6.34786 16.5988 6.66669H13.0013C12.7803 6.66669 12.5683 6.57889 12.412 6.42261C12.2558 6.26633 12.168 6.05437 12.168 5.83335V2.23585C12.4868 2.41367 12.781 2.63248 13.043 2.88669L15.948 5.79169ZM17.168 15.8334C17.168 16.4964 16.9046 17.1323 16.4357 17.6011C15.9669 18.07 15.331 18.3334 14.668 18.3334H6.33464C5.67159 18.3334 5.03571 18.07 4.56687 17.6011C4.09803 17.1323 3.83464 16.4964 3.83464 15.8334V4.16669C3.83464 3.50365 4.09803 2.86776 4.56687 2.39892C5.03571 1.93008 5.67159 1.66669 6.33464 1.66669H10.0971C10.2346 1.66669 10.3663 1.69335 10.5013 1.70585V5.83335C10.5013 6.4964 10.7647 7.13228 11.2335 7.60112C11.7024 8.06996 12.3383 8.33335 13.0013 8.33335H17.1288C17.1413 8.46836 17.168 8.60002 17.168 8.73752V15.8334ZM14.438 11.0925C14.5901 11.2526 14.6725 11.4665 14.6671 11.6873C14.6616 11.9081 14.5687 12.1177 14.4088 12.27L11.418 15.115C10.9478 15.5778 10.3139 15.8359 9.65422 15.8333C8.99457 15.8306 8.3627 15.5674 7.8963 15.1009L6.61297 13.9559C6.44787 13.8087 6.34801 13.6019 6.33535 13.3811C6.32908 13.2717 6.34441 13.1622 6.38046 13.0588C6.41652 12.9554 6.47258 12.8601 6.54547 12.7784C6.61835 12.6966 6.70662 12.63 6.80524 12.5824C6.90386 12.5347 7.0109 12.507 7.12024 12.5007C7.34106 12.4881 7.55787 12.5637 7.72297 12.7109L9.0438 13.8892C9.11942 13.9741 9.21161 14.0426 9.3147 14.0906C9.41779 14.1385 9.52961 14.1649 9.64327 14.168C9.75692 14.1711 9.87002 14.151 9.97559 14.1088C10.0812 14.0665 10.177 14.0032 10.2571 13.9225L13.2571 11.0634C13.3365 10.9875 13.43 10.9281 13.5324 10.8885C13.6347 10.8489 13.7439 10.8299 13.8536 10.8326C13.9633 10.8353 14.0714 10.8597 14.1717 10.9043C14.272 10.9489 14.3625 11.0128 14.438 11.0925Z" fill="#254D55"/>
</g>
<defs>
<clipPath id="clip0_5008_21630">
<rect width="20" height="20" fill="white" transform="translate(0.5)"/>
</clipPath>
</defs>
</svg>
