<svg width="21" height="20" viewBox="0 0 21 20" fill="none" xmlns="http://www.w3.org/2000/svg">
<g clip-path="url(#clip0_5008_959)">
<path d="M17.1263 4.6136L14.2213 1.7086C13.681 1.16533 13.0382 0.734618 12.3303 0.441384C11.6224 0.148151 10.8634 -0.00178133 10.0971 0.000264804H6.33464C5.22997 0.00158802 4.17093 0.441 3.38982 1.22211C2.6087 2.00323 2.16929 3.06227 2.16797 4.16693V15.8336C2.16929 16.9383 2.6087 17.9973 3.38982 18.7784C4.17093 19.5595 5.22997 19.9989 6.33464 20.0003H14.668C15.7726 19.9989 16.8317 19.5595 17.6128 18.7784C18.3939 17.9973 18.8333 16.9383 18.8346 15.8336V8.73777C18.8367 7.97153 18.6868 7.2125 18.3935 6.50459C18.1003 5.79668 17.6696 5.15395 17.1263 4.6136ZM15.948 5.79193C16.2022 6.05394 16.421 6.34811 16.5988 6.66693H13.0013C12.7803 6.66693 12.5683 6.57913 12.412 6.42285C12.2558 6.26657 12.168 6.05461 12.168 5.8336V2.2361C12.4868 2.41392 12.781 2.63272 13.043 2.88693L15.948 5.79193ZM17.168 15.8336C17.168 16.4966 16.9046 17.1325 16.4357 17.6014C15.9669 18.0702 15.331 18.3336 14.668 18.3336H6.33464C5.67159 18.3336 5.03571 18.0702 4.56687 17.6014C4.09803 17.1325 3.83464 16.4966 3.83464 15.8336V4.16693C3.83464 3.50389 4.09803 2.86801 4.56687 2.39916C5.03571 1.93032 5.67159 1.66693 6.33464 1.66693H10.0971C10.2346 1.66693 10.3663 1.6936 10.5013 1.7061V5.8336C10.5013 6.49664 10.7647 7.13253 11.2335 7.60137C11.7024 8.07021 12.3383 8.3336 13.0013 8.3336H17.1288C17.1413 8.4686 17.168 8.60027 17.168 8.73777V15.8336ZM14.438 11.0928C14.5901 11.2528 14.6725 11.4668 14.6671 11.6876C14.6616 11.9083 14.5687 12.1179 14.4088 12.2703L11.418 15.1153C10.9478 15.578 10.3139 15.8362 9.65422 15.8335C8.99457 15.8309 8.3627 15.5676 7.8963 15.1011L6.61297 13.9561C6.44787 13.8089 6.34801 13.6022 6.33535 13.3813C6.32908 13.272 6.34441 13.1625 6.38046 13.0591C6.41652 12.9557 6.47258 12.8603 6.54547 12.7786C6.61835 12.6969 6.70662 12.6303 6.80524 12.5826C6.90386 12.535 7.0109 12.5072 7.12024 12.501C7.34106 12.4883 7.55787 12.5639 7.72297 12.7111L9.0438 13.8894C9.11942 13.9743 9.21161 14.0429 9.3147 14.0908C9.41779 14.1388 9.52961 14.1651 9.64327 14.1683C9.75692 14.1714 9.87002 14.1512 9.97559 14.109C10.0812 14.0668 10.177 14.0034 10.2571 13.9228L13.2571 11.0636C13.3365 10.9878 13.43 10.9283 13.5324 10.8887C13.6347 10.8491 13.7439 10.8301 13.8536 10.8328C13.9633 10.8355 14.0714 10.8599 14.1717 10.9045C14.272 10.9491 14.3625 11.0131 14.438 11.0928Z" fill="white"/>
</g>
<defs>
<clipPath id="clip0_5008_959">
<rect width="20" height="20" fill="white" transform="translate(0.5)"/>
</clipPath>
</defs>
</svg>
