<svg width="21" height="20" viewBox="0 0 21 20" fill="none" xmlns="http://www.w3.org/2000/svg">
<path d="M6.33333 11.6667C6.33333 11.8877 6.24554 12.0996 6.08926 12.2559C5.93297 12.4122 5.72101 12.5 5.5 12.5H4.66667C4.44565 12.5 4.23369 12.4122 4.07741 12.2559C3.92113 12.0996 3.83333 11.8877 3.83333 11.6667C3.83333 11.4457 3.92113 11.2337 4.07741 11.0774C4.23369 10.9211 4.44565 10.8333 4.66667 10.8333H5.5C5.72101 10.8333 5.93297 10.9211 6.08926 11.0774C6.24554 11.2337 6.33333 11.4457 6.33333 11.6667ZM9.66667 10.8333H8.83333C8.61232 10.8333 8.40036 10.9211 8.24408 11.0774C8.0878 11.2337 8 11.4457 8 11.6667C8 11.8877 8.0878 12.0996 8.24408 12.2559C8.40036 12.4122 8.61232 12.5 8.83333 12.5H9.66667C9.88768 12.5 10.0996 12.4122 10.2559 12.2559C10.4122 12.0996 10.5 11.8877 10.5 11.6667C10.5 11.4457 10.4122 11.2337 10.2559 11.0774C10.0996 10.9211 9.88768 10.8333 9.66667 10.8333ZM5.5 14.1667H4.66667C4.44565 14.1667 4.23369 14.2545 4.07741 14.4107C3.92113 14.567 3.83333 14.779 3.83333 15C3.83333 15.221 3.92113 15.433 4.07741 15.5893C4.23369 15.7455 4.44565 15.8333 4.66667 15.8333H5.5C5.72101 15.8333 5.93297 15.7455 6.08926 15.5893C6.24554 15.433 6.33333 15.221 6.33333 15C6.33333 14.779 6.24554 14.567 6.08926 14.4107C5.93297 14.2545 5.72101 14.1667 5.5 14.1667ZM9.66667 14.1667H8.83333C8.61232 14.1667 8.40036 14.2545 8.24408 14.4107C8.0878 14.567 8 14.779 8 15C8 15.221 8.0878 15.433 8.24408 15.5893C8.40036 15.7455 8.61232 15.8333 8.83333 15.8333H9.66667C9.88768 15.8333 10.0996 15.7455 10.2559 15.5893C10.4122 15.433 10.5 15.221 10.5 15C10.5 14.779 10.4122 14.567 10.2559 14.4107C10.0996 14.2545 9.88768 14.1667 9.66667 14.1667ZM5.5 4.16667H4.66667C4.44565 4.16667 4.23369 4.25446 4.07741 4.41074C3.92113 4.56702 3.83333 4.77899 3.83333 5C3.83333 5.22101 3.92113 5.43297 4.07741 5.58926C4.23369 5.74554 4.44565 5.83333 4.66667 5.83333H5.5C5.72101 5.83333 5.93297 5.74554 6.08926 5.58926C6.24554 5.43297 6.33333 5.22101 6.33333 5C6.33333 4.77899 6.24554 4.56702 6.08926 4.41074C5.93297 4.25446 5.72101 4.16667 5.5 4.16667ZM9.66667 4.16667H8.83333C8.61232 4.16667 8.40036 4.25446 8.24408 4.41074C8.0878 4.56702 8 4.77899 8 5C8 5.22101 8.0878 5.43297 8.24408 5.58926C8.40036 5.74554 8.61232 5.83333 8.83333 5.83333H9.66667C9.88768 5.83333 10.0996 5.74554 10.2559 5.58926C10.4122 5.43297 10.5 5.22101 10.5 5C10.5 4.77899 10.4122 4.56702 10.2559 4.41074C10.0996 4.25446 9.88768 4.16667 9.66667 4.16667ZM5.5 7.5H4.66667C4.44565 7.5 4.23369 7.5878 4.07741 7.74408C3.92113 7.90036 3.83333 8.11232 3.83333 8.33333C3.83333 8.55435 3.92113 8.76631 4.07741 8.92259C4.23369 9.07887 4.44565 9.16667 4.66667 9.16667H5.5C5.72101 9.16667 5.93297 9.07887 6.08926 8.92259C6.24554 8.76631 6.33333 8.55435 6.33333 8.33333C6.33333 8.11232 6.24554 7.90036 6.08926 7.74408C5.93297 7.5878 5.72101 7.5 5.5 7.5ZM9.66667 7.5H8.83333C8.61232 7.5 8.40036 7.5878 8.24408 7.74408C8.0878 7.90036 8 8.11232 8 8.33333C8 8.55435 8.0878 8.76631 8.24408 8.92259C8.40036 9.07887 8.61232 9.16667 8.83333 9.16667H9.66667C9.88768 9.16667 10.0996 9.07887 10.2559 8.92259C10.4122 8.76631 10.5 8.55435 10.5 8.33333C10.5 8.11232 10.4122 7.90036 10.2559 7.74408C10.0996 7.5878 9.88768 7.5 9.66667 7.5ZM20.5 8.33333V15.8333C20.4987 16.938 20.0593 17.997 19.2782 18.7782C18.497 19.5593 17.438 19.9987 16.3333 20H4.66667C3.562 19.9987 2.50296 19.5593 1.72185 18.7782C0.940735 17.997 0.501323 16.938 0.5 15.8333L0.5 4.16667C0.501323 3.062 0.940735 2.00296 1.72185 1.22185C2.50296 0.440735 3.562 0.00132321 4.66667 0L9.66667 0C10.7713 0.00132321 11.8304 0.440735 12.6115 1.22185C13.3926 2.00296 13.832 3.062 13.8333 4.16667H16.3333C17.438 4.16799 18.497 4.6074 19.2782 5.38852C20.0593 6.16963 20.4987 7.22867 20.5 8.33333ZM4.66667 18.3333H12.1667V4.16667C12.1667 3.50363 11.9033 2.86774 11.4344 2.3989C10.9656 1.93006 10.3297 1.66667 9.66667 1.66667H4.66667C4.00363 1.66667 3.36774 1.93006 2.8989 2.3989C2.43006 2.86774 2.16667 3.50363 2.16667 4.16667V15.8333C2.16667 16.4964 2.43006 17.1323 2.8989 17.6011C3.36774 18.0699 4.00363 18.3333 4.66667 18.3333ZM18.8333 8.33333C18.8333 7.67029 18.5699 7.03441 18.1011 6.56557C17.6323 6.09673 16.9964 5.83333 16.3333 5.83333H13.8333V18.3333H16.3333C16.9964 18.3333 17.6323 18.0699 18.1011 17.6011C18.5699 17.1323 18.8333 16.4964 18.8333 15.8333V8.33333ZM16.3333 10.8333C16.1685 10.8333 16.0074 10.8822 15.8704 10.9738C15.7333 11.0653 15.6265 11.1955 15.5634 11.3478C15.5004 11.5 15.4839 11.6676 15.516 11.8292C15.5482 11.9909 15.6275 12.1394 15.7441 12.2559C15.8606 12.3725 16.0091 12.4518 16.1708 12.484C16.3324 12.5161 16.5 12.4996 16.6522 12.4366C16.8045 12.3735 16.9347 12.2667 17.0262 12.1296C17.1178 11.9926 17.1667 11.8315 17.1667 11.6667C17.1667 11.4457 17.0789 11.2337 16.9226 11.0774C16.7663 10.9211 16.5543 10.8333 16.3333 10.8333ZM16.3333 14.1667C16.1685 14.1667 16.0074 14.2155 15.8704 14.3071C15.7333 14.3987 15.6265 14.5288 15.5634 14.6811C15.5004 14.8334 15.4839 15.0009 15.516 15.1626C15.5482 15.3242 15.6275 15.4727 15.7441 15.5893C15.8606 15.7058 16.0091 15.7852 16.1708 15.8173C16.3324 15.8495 16.5 15.833 16.6522 15.7699C16.8045 15.7068 16.9347 15.6 17.0262 15.463C17.1178 15.3259 17.1667 15.1648 17.1667 15C17.1667 14.779 17.0789 14.567 16.9226 14.4107C16.7663 14.2545 16.5543 14.1667 16.3333 14.1667ZM16.3333 7.5C16.1685 7.5 16.0074 7.54887 15.8704 7.64044C15.7333 7.73201 15.6265 7.86216 15.5634 8.01443C15.5004 8.1667 15.4839 8.33426 15.516 8.49591C15.5482 8.65756 15.6275 8.80604 15.7441 8.92259C15.8606 9.03913 16.0091 9.1185 16.1708 9.15065C16.3324 9.18281 16.5 9.16631 16.6522 9.10323C16.8045 9.04016 16.9347 8.93335 17.0262 8.79631C17.1178 8.65927 17.1667 8.49815 17.1667 8.33333C17.1667 8.11232 17.0789 7.90036 16.9226 7.74408C16.7663 7.5878 16.5543 7.5 16.3333 7.5Z" fill="white"/>
</svg>
