<svg width="21" height="20" viewBox="0 0 21 20" fill="none" xmlns="http://www.w3.org/2000/svg">
<g clip-path="url(#clip0_5008_4137)">
<path d="M16.3333 16.6673H4.66667C3.562 16.666 2.50296 16.2266 1.72185 15.4455C0.940735 14.6644 0.501323 13.6053 0.5 12.5007L0.5 7.50065C0.501323 6.39599 0.940735 5.33695 1.72185 4.55583C2.50296 3.77472 3.562 3.33531 4.66667 3.33398H16.3333C17.438 3.33531 18.497 3.77472 19.2782 4.55583C20.0593 5.33695 20.4987 6.39599 20.5 7.50065V12.5007C20.4987 13.6053 20.0593 14.6644 19.2782 15.4455C18.497 16.2266 17.438 16.666 16.3333 16.6673ZM4.66667 5.00065C4.00363 5.00065 3.36774 5.26404 2.8989 5.73288C2.43006 6.20173 2.16667 6.83761 2.16667 7.50065V12.5007C2.16667 13.1637 2.43006 13.7996 2.8989 14.2684C3.36774 14.7373 4.00363 15.0007 4.66667 15.0007H16.3333C16.9964 15.0007 17.6323 14.7373 18.1011 14.2684C18.5699 13.7996 18.8333 13.1637 18.8333 12.5007V7.50065C18.8333 6.83761 18.5699 6.20173 18.1011 5.73288C17.6323 5.26404 16.9964 5.00065 16.3333 5.00065H4.66667ZM10.5 13.334C9.84073 13.334 9.19626 13.1385 8.6481 12.7722C8.09994 12.4059 7.67269 11.8853 7.4204 11.2763C7.16811 10.6672 7.1021 9.99695 7.23072 9.35035C7.35933 8.70375 7.6768 8.1098 8.14298 7.64363C8.60915 7.17745 9.2031 6.85998 9.8497 6.73137C10.4963 6.60275 11.1665 6.66876 11.7756 6.92105C12.3847 7.17334 12.9053 7.60059 13.2716 8.14875C13.6378 8.69691 13.8333 9.34138 13.8333 10.0007C13.8333 10.8847 13.4821 11.7326 12.857 12.3577C12.2319 12.9828 11.3841 13.334 10.5 13.334ZM10.5 8.33398C10.1704 8.33398 9.84813 8.43173 9.57405 8.61487C9.29997 8.798 9.08635 9.0583 8.9602 9.36285C8.83405 9.66739 8.80105 10.0025 8.86536 10.3258C8.92967 10.6491 9.0884 10.9461 9.32149 11.1792C9.55458 11.4122 9.85155 11.571 10.1748 11.6353C10.4982 11.6996 10.8333 11.6666 11.1378 11.5405C11.4423 11.4143 11.7026 11.2007 11.8858 10.9266C12.0689 10.6525 12.1667 10.3303 12.1667 10.0007C12.1667 9.55862 11.9911 9.1347 11.6785 8.82214C11.3659 8.50958 10.942 8.33398 10.5 8.33398ZM4.66667 6.66732C4.50185 6.66732 4.34073 6.71619 4.20369 6.80776C4.06665 6.89933 3.95984 7.02948 3.89677 7.18175C3.83369 7.33402 3.81719 7.50158 3.84935 7.66323C3.8815 7.82488 3.96087 7.97336 4.07741 8.08991C4.19395 8.20645 4.34244 8.28582 4.50409 8.31797C4.66574 8.35013 4.8333 8.33362 4.98557 8.27055C5.13784 8.20748 5.26799 8.10067 5.35956 7.96363C5.45113 7.82659 5.5 7.66547 5.5 7.50065C5.5 7.27964 5.4122 7.06768 5.25592 6.9114C5.09964 6.75512 4.88768 6.66732 4.66667 6.66732ZM15.5 7.50065C15.5 7.66547 15.5489 7.82659 15.6404 7.96363C15.732 8.10067 15.8622 8.20748 16.0144 8.27055C16.1667 8.33362 16.3343 8.35013 16.4959 8.31797C16.6576 8.28582 16.806 8.20645 16.9226 8.08991C17.0391 7.97336 17.1185 7.82488 17.1507 7.66323C17.1828 7.50158 17.1663 7.33402 17.1032 7.18175C17.0402 7.02948 16.9333 6.89933 16.7963 6.80776C16.6593 6.71619 16.4982 6.66732 16.3333 6.66732C16.1123 6.66732 15.9004 6.75512 15.7441 6.9114C15.5878 7.06768 15.5 7.27964 15.5 7.50065ZM4.66667 11.6673C4.50185 11.6673 4.34073 11.7162 4.20369 11.8078C4.06665 11.8993 3.95984 12.0295 3.89677 12.1817C3.83369 12.334 3.81719 12.5016 3.84935 12.6632C3.8815 12.8249 3.96087 12.9734 4.07741 13.0899C4.19395 13.2065 4.34244 13.2858 4.50409 13.318C4.66574 13.3501 4.8333 13.3336 4.98557 13.2706C5.13784 13.2075 5.26799 13.1007 5.35956 12.9636C5.45113 12.8266 5.5 12.6655 5.5 12.5007C5.5 12.2796 5.4122 12.0677 5.25592 11.9114C5.09964 11.7551 4.88768 11.6673 4.66667 11.6673ZM15.5 12.5007C15.5 12.6655 15.5489 12.8266 15.6404 12.9636C15.732 13.1007 15.8622 13.2075 16.0144 13.2706C16.1667 13.3336 16.3343 13.3501 16.4959 13.318C16.6576 13.2858 16.806 13.2065 16.9226 13.0899C17.0391 12.9734 17.1185 12.8249 17.1507 12.6632C17.1828 12.5016 17.1663 12.334 17.1032 12.1817C17.0402 12.0295 16.9333 11.8993 16.7963 11.8078C16.6593 11.7162 16.4982 11.6673 16.3333 11.6673C16.1123 11.6673 15.9004 11.7551 15.7441 11.9114C15.5878 12.0677 15.5 12.2796 15.5 12.5007Z" fill="#254D55"/>
</g>
<defs>
<clipPath id="clip0_5008_4137">
<rect width="20" height="20" fill="white" transform="translate(0.5)"/>
</clipPath>
</defs>
</svg>
