<svg width="21" height="20" viewBox="0 0 21 20" fill="none" xmlns="http://www.w3.org/2000/svg">
<g clip-path="url(#clip0_5008_21253)">
<path d="M16.3333 16.6668H4.66667C3.562 16.6655 2.50296 16.2261 1.72185 15.445C0.940735 14.6639 0.501323 13.6048 0.5 12.5002L0.5 7.50016C0.501323 6.3955 0.940735 5.33646 1.72185 4.55535C2.50296 3.77423 3.562 3.33482 4.66667 3.3335H16.3333C17.438 3.33482 18.497 3.77423 19.2782 4.55535C20.0593 5.33646 20.4987 6.3955 20.5 7.50016V12.5002C20.4987 13.6048 20.0593 14.6639 19.2782 15.445C18.497 16.2261 17.438 16.6655 16.3333 16.6668ZM4.66667 5.00016C4.00363 5.00016 3.36774 5.26355 2.8989 5.7324C2.43006 6.20124 2.16667 6.83712 2.16667 7.50016V12.5002C2.16667 13.1632 2.43006 13.7991 2.8989 14.2679C3.36774 14.7368 4.00363 15.0002 4.66667 15.0002H16.3333C16.9964 15.0002 17.6323 14.7368 18.1011 14.2679C18.5699 13.7991 18.8333 13.1632 18.8333 12.5002V7.50016C18.8333 6.83712 18.5699 6.20124 18.1011 5.7324C17.6323 5.26355 16.9964 5.00016 16.3333 5.00016H4.66667ZM10.5 13.3335C9.84073 13.3335 9.19626 13.138 8.6481 12.7717C8.09994 12.4055 7.67269 11.8849 7.4204 11.2758C7.16811 10.6667 7.1021 9.99647 7.23072 9.34986C7.35933 8.70326 7.6768 8.10931 8.14298 7.64314C8.60915 7.17696 9.2031 6.8595 9.8497 6.73088C10.4963 6.60226 11.1665 6.66827 11.7756 6.92056C12.3847 7.17286 12.9053 7.6001 13.2716 8.14826C13.6378 8.69643 13.8333 9.34089 13.8333 10.0002C13.8333 10.8842 13.4821 11.7321 12.857 12.3572C12.2319 12.9823 11.3841 13.3335 10.5 13.3335ZM10.5 8.3335C10.1704 8.3335 9.84813 8.43124 9.57405 8.61438C9.29997 8.79752 9.08635 9.05781 8.9602 9.36236C8.83405 9.6669 8.80105 10.002 8.86536 10.3253C8.92967 10.6486 9.0884 10.9456 9.32149 11.1787C9.55458 11.4118 9.85155 11.5705 10.1748 11.6348C10.4982 11.6991 10.8333 11.6661 11.1378 11.54C11.4423 11.4138 11.7026 11.2002 11.8858 10.9261C12.0689 10.652 12.1667 10.3298 12.1667 10.0002C12.1667 9.55814 11.9911 9.13421 11.6785 8.82165C11.3659 8.50909 10.942 8.3335 10.5 8.3335ZM4.66667 6.66683C4.50185 6.66683 4.34073 6.7157 4.20369 6.80727C4.06665 6.89884 3.95984 7.02899 3.89677 7.18126C3.83369 7.33353 3.81719 7.50109 3.84935 7.66274C3.8815 7.82439 3.96087 7.97287 4.07741 8.08942C4.19395 8.20596 4.34244 8.28533 4.50409 8.31748C4.66574 8.34964 4.8333 8.33314 4.98557 8.27006C5.13784 8.20699 5.26799 8.10018 5.35956 7.96314C5.45113 7.8261 5.5 7.66498 5.5 7.50016C5.5 7.27915 5.4122 7.06719 5.25592 6.91091C5.09964 6.75463 4.88768 6.66683 4.66667 6.66683ZM15.5 7.50016C15.5 7.66498 15.5489 7.8261 15.6404 7.96314C15.732 8.10018 15.8622 8.20699 16.0144 8.27006C16.1667 8.33314 16.3343 8.34964 16.4959 8.31748C16.6576 8.28533 16.806 8.20596 16.9226 8.08942C17.0391 7.97287 17.1185 7.82439 17.1507 7.66274C17.1828 7.50109 17.1663 7.33353 17.1032 7.18126C17.0402 7.02899 16.9333 6.89884 16.7963 6.80727C16.6593 6.7157 16.4982 6.66683 16.3333 6.66683C16.1123 6.66683 15.9004 6.75463 15.7441 6.91091C15.5878 7.06719 15.5 7.27915 15.5 7.50016ZM4.66667 11.6668C4.50185 11.6668 4.34073 11.7157 4.20369 11.8073C4.06665 11.8988 3.95984 12.029 3.89677 12.1813C3.83369 12.3335 3.81719 12.5011 3.84935 12.6627C3.8815 12.8244 3.96087 12.9729 4.07741 13.0894C4.19395 13.206 4.34244 13.2853 4.50409 13.3175C4.66574 13.3496 4.8333 13.3331 4.98557 13.2701C5.13784 13.207 5.26799 13.1002 5.35956 12.9631C5.45113 12.8261 5.5 12.665 5.5 12.5002C5.5 12.2791 5.4122 12.0672 5.25592 11.9109C5.09964 11.7546 4.88768 11.6668 4.66667 11.6668ZM15.5 12.5002C15.5 12.665 15.5489 12.8261 15.6404 12.9631C15.732 13.1002 15.8622 13.207 16.0144 13.2701C16.1667 13.3331 16.3343 13.3496 16.4959 13.3175C16.6576 13.2853 16.806 13.206 16.9226 13.0894C17.0391 12.9729 17.1185 12.8244 17.1507 12.6627C17.1828 12.5011 17.1663 12.3335 17.1032 12.1813C17.0402 12.029 16.9333 11.8988 16.7963 11.8073C16.6593 11.7157 16.4982 11.6668 16.3333 11.6668C16.1123 11.6668 15.9004 11.7546 15.7441 11.9109C15.5878 12.0672 15.5 12.2791 15.5 12.5002Z" fill="white"/>
</g>
<defs>
<clipPath id="clip0_5008_21253">
<rect width="20" height="20" fill="white" transform="translate(0.5)"/>
</clipPath>
</defs>
</svg>
