<svg width="21" height="20" viewBox="0 0 21 20" fill="none" xmlns="http://www.w3.org/2000/svg">
<g clip-path="url(#clip0_5008_18087)">
<path d="M16.048 0.775223L5.88799 10.9352C5.49994 11.3212 5.1923 11.7803 4.98289 12.2859C4.77347 12.7916 4.66644 13.3338 4.66799 13.8811V15.0002C4.66799 15.2212 4.75578 15.4332 4.91206 15.5895C5.06834 15.7458 5.2803 15.8336 5.50132 15.8336H6.62049C7.16779 15.8351 7.70996 15.7281 8.21562 15.5187C8.72127 15.3092 9.18036 15.0016 9.56632 14.6136L19.7263 4.45356C20.2133 3.96536 20.4868 3.30395 20.4868 2.61439C20.4868 1.92483 20.2133 1.26341 19.7263 0.775223C19.231 0.301801 18.5723 0.0375977 17.8872 0.0375977C17.202 0.0375977 16.5433 0.301801 16.048 0.775223ZM18.548 3.27522L8.38799 13.4352C7.91809 13.9023 7.28299 14.1652 6.62049 14.1669H6.33465V13.8811C6.33639 13.2186 6.59929 12.5835 7.06632 12.1136L17.2263 1.95356C17.4043 1.78352 17.641 1.68863 17.8872 1.68863C18.1333 1.68863 18.37 1.78352 18.548 1.95356C18.7229 2.12899 18.8212 2.36663 18.8212 2.61439C18.8212 2.86215 18.7229 3.09979 18.548 3.27522Z" fill="white"/>
<path d="M19.6667 7.4825C19.4457 7.4825 19.2337 7.5703 19.0774 7.72658C18.9211 7.88286 18.8333 8.09482 18.8333 8.31583V12.5H15.5C14.837 12.5 14.2011 12.7634 13.7322 13.2322C13.2634 13.7011 13 14.337 13 15V18.3333H4.66667C4.00363 18.3333 3.36774 18.0699 2.8989 17.6011C2.43006 17.1323 2.16667 16.4964 2.16667 15.8333V4.16667C2.16667 3.50363 2.43006 2.86774 2.8989 2.3989C3.36774 1.93006 4.00363 1.66667 4.66667 1.66667H12.2017C12.4227 1.66667 12.6346 1.57887 12.7909 1.42259C12.9472 1.26631 13.035 1.05435 13.035 0.833333C13.035 0.61232 12.9472 0.400358 12.7909 0.244078C12.6346 0.0877974 12.4227 0 12.2017 0L4.66667 0C3.562 0.00132321 2.50297 0.440735 1.72185 1.22185C0.940735 2.00296 0.501323 3.062 0.5 4.16667L0.5 15.8333C0.501323 16.938 0.940735 17.997 1.72185 18.7782C2.50297 19.5593 3.562 19.9987 4.66667 20H14.1192C14.6666 20.0016 15.2089 19.8945 15.7147 19.6851C16.2205 19.4757 16.6797 19.1681 17.0658 18.78L19.2792 16.565C19.6673 16.1791 19.975 15.72 20.1846 15.2143C20.3941 14.7087 20.5013 14.1665 20.5 13.6192V8.31583C20.5 8.09482 20.4122 7.88286 20.2559 7.72658C20.0996 7.5703 19.8877 7.4825 19.6667 7.4825ZM15.8875 17.6017C15.5525 17.9358 15.1289 18.1672 14.6667 18.2683V15C14.6667 14.779 14.7545 14.567 14.9107 14.4107C15.067 14.2545 15.279 14.1667 15.5 14.1667H18.7708C18.6677 14.6279 18.4367 15.0508 18.1042 15.3867L15.8875 17.6017Z" fill="white"/>
</g>
<defs>
<clipPath id="clip0_5008_18087">
<rect width="20" height="20" fill="white" transform="translate(0.5)"/>
</clipPath>
</defs>
</svg>
