<svg width="20" height="20" viewBox="0 0 20 20" fill="none" xmlns="http://www.w3.org/2000/svg">
<g clip-path="url(#clip0_5055_5540)">
<path d="M16.6255 4.61335L13.7221 1.70835C13.1816 1.16513 12.5387 0.734461 11.8307 0.441235C11.1226 0.148009 10.3635 -0.00195323 9.59714 1.92072e-05L5.83464 1.92072e-05C4.72997 0.00134242 3.67093 0.440754 2.88982 1.22187C2.1087 2.00298 1.66929 3.06202 1.66797 4.16669L1.66797 15.8334C1.66929 16.938 2.1087 17.9971 2.88982 18.7782C3.67093 19.5593 4.72997 19.9987 5.83464 20H14.168C15.2726 19.9987 16.3317 19.5593 17.1128 18.7782C17.8939 17.9971 18.3333 16.938 18.3346 15.8334V8.73752C18.3367 7.9712 18.1867 7.2121 17.8933 6.50416C17.5999 5.79623 17.169 5.15355 16.6255 4.61335ZM15.4471 5.79169C15.7016 6.05347 15.9204 6.34768 16.098 6.66669H12.5013C12.2803 6.66669 12.0683 6.57889 11.912 6.42261C11.7558 6.26633 11.668 6.05437 11.668 5.83335V2.23669C11.9871 2.41412 12.2815 2.63265 12.5438 2.88669L15.4471 5.79169ZM16.668 15.8334C16.668 16.4964 16.4046 17.1323 15.9357 17.6011C15.4669 18.07 14.831 18.3334 14.168 18.3334H5.83464C5.17159 18.3334 4.53571 18.07 4.06687 17.6011C3.59803 17.1323 3.33464 16.4964 3.33464 15.8334V4.16669C3.33464 3.50364 3.59803 2.86776 4.06687 2.39892C4.53571 1.93008 5.17159 1.66669 5.83464 1.66669H9.59714C9.7338 1.66669 9.8663 1.69335 10.0013 1.70585V5.83335C10.0013 6.49639 10.2647 7.13228 10.7335 7.60112C11.2024 8.06996 11.8383 8.33335 12.5013 8.33335H16.6288C16.6413 8.46835 16.668 8.60002 16.668 8.73752V15.8334Z" fill="#254D55"/>
</g>
<defs>
<clipPath id="clip0_5055_5540">
<rect width="20" height="20" fill="white"/>
</clipPath>
</defs>
</svg>
