<svg width="21" height="20" viewBox="0 0 21 20" fill="none" xmlns="http://www.w3.org/2000/svg">
<g clip-path="url(#clip0_5008_13674)">
<path d="M17.1255 4.61372L14.2221 1.70872C13.6816 1.1655 13.0387 0.734828 12.3307 0.441601C11.6226 0.148375 10.8635 -0.00158702 10.0971 0.000385418L6.33464 0.000385418C5.22997 0.00170863 4.17093 0.44112 3.38982 1.22224C2.6087 2.00335 2.16929 3.06239 2.16797 4.16705V15.8337C2.16929 16.9384 2.6087 17.9974 3.38982 18.7785C4.17093 19.5597 5.22997 19.9991 6.33464 20.0004H14.668C15.7726 19.9991 16.8317 19.5597 17.6128 18.7785C18.3939 17.9974 18.8333 16.9384 18.8346 15.8337V8.73788C18.8367 7.97157 18.6867 7.21246 18.3933 6.50453C18.0999 5.7966 17.669 5.15392 17.1255 4.61372ZM15.9471 5.79205C16.2016 6.05384 16.4204 6.34804 16.598 6.66705H13.0013C12.7803 6.66705 12.5683 6.57925 12.412 6.42297C12.2558 6.26669 12.168 6.05473 12.168 5.83372V2.23705C12.4871 2.41449 12.7815 2.63302 13.0438 2.88705L15.9471 5.79205ZM17.168 15.8337C17.168 16.4968 16.9046 17.1326 16.4357 17.6015C15.9669 18.0703 15.331 18.3337 14.668 18.3337H6.33464C5.67159 18.3337 5.03571 18.0703 4.56687 17.6015C4.09803 17.1326 3.83464 16.4968 3.83464 15.8337V4.16705C3.83464 3.50401 4.09803 2.86813 4.56687 2.39929C5.03571 1.93044 5.67159 1.66705 6.33464 1.66705H10.0971C10.2338 1.66705 10.3663 1.69372 10.5013 1.70622V5.83372C10.5013 6.49676 10.7647 7.13264 11.2335 7.60149C11.7024 8.07033 12.3383 8.33372 13.0013 8.33372H17.1288C17.1413 8.46872 17.168 8.60038 17.168 8.73788V15.8337Z" fill="white"/>
</g>
<defs>
<clipPath id="clip0_5008_13674">
<rect width="20" height="20" fill="white" transform="translate(0.5)"/>
</clipPath>
</defs>
</svg>
