<svg width="21" height="20" viewBox="0 0 21 20" fill="none" xmlns="http://www.w3.org/2000/svg">
<g clip-path="url(#clip0_5008_1822)">
<path d="M17.1255 4.6136L14.2221 1.7086C13.6816 1.16538 13.0387 0.734706 12.3307 0.441479C11.6226 0.148253 10.8635 -0.00170909 10.0971 0.000263348L6.33464 0.000263348C5.22997 0.00158656 4.17093 0.440998 3.38982 1.22211C2.6087 2.00323 2.16929 3.06227 2.16797 4.16693V15.8336C2.16929 16.9383 2.6087 17.9973 3.38982 18.7784C4.17093 19.5595 5.22997 19.9989 6.33464 20.0003H14.668C15.7726 19.9989 16.8317 19.5595 17.6128 18.7784C18.3939 17.9973 18.8333 16.9383 18.8346 15.8336V8.73776C18.8367 7.97145 18.6867 7.21234 18.3933 6.50441C18.0999 5.79648 17.669 5.1538 17.1255 4.6136ZM15.9471 5.79193C16.2016 6.05372 16.4204 6.34792 16.598 6.66693H13.0013C12.7803 6.66693 12.5683 6.57913 12.412 6.42285C12.2558 6.26657 12.168 6.05461 12.168 5.8336V2.23693C12.4871 2.41437 12.7815 2.6329 13.0438 2.88693L15.9471 5.79193ZM17.168 15.8336C17.168 16.4966 16.9046 17.1325 16.4357 17.6014C15.9669 18.0702 15.331 18.3336 14.668 18.3336H6.33464C5.67159 18.3336 5.03571 18.0702 4.56687 17.6014C4.09803 17.1325 3.83464 16.4966 3.83464 15.8336V4.16693C3.83464 3.50389 4.09803 2.868 4.56687 2.39916C5.03571 1.93032 5.67159 1.66693 6.33464 1.66693H10.0971C10.2338 1.66693 10.3663 1.6936 10.5013 1.7061V5.8336C10.5013 6.49664 10.7647 7.13252 11.2335 7.60136C11.7024 8.0702 12.3383 8.3336 13.0013 8.3336H17.1288C17.1413 8.4686 17.168 8.60026 17.168 8.73776V15.8336Z" fill="white"/>
</g>
<defs>
<clipPath id="clip0_5008_1822">
<rect width="20" height="20" fill="white" transform="translate(0.5)"/>
</clipPath>
</defs>
</svg>
