<svg width="25" height="24" viewBox="0 0 25 24" fill="none" xmlns="http://www.w3.org/2000/svg">
<mask id="mask0_5055_19898" style="mask-type:alpha" maskUnits="userSpaceOnUse" x="0" y="0" width="25" height="24">
<rect x="0.5" width="24" height="24" fill="#D9D9D9"/>
</mask>
<g mask="url(#mask0_5055_19898)">
<path d="M12.5 22C10.1833 21.4167 8.27083 20.0875 6.7625 18.0125C5.25417 15.9375 4.5 13.6333 4.5 11.1V5L12.5 2L20.5 5V11.1C20.5 13.6333 19.7458 15.9375 18.2375 18.0125C16.7292 20.0875 14.8167 21.4167 12.5 22ZM12.5 19.9C14.2333 19.35 15.6667 18.25 16.8 16.6C17.9333 14.95 18.5 13.1167 18.5 11.1V6.375L12.5 4.125L6.5 6.375V11.1C6.5 13.1167 7.06667 14.95 8.2 16.6C9.33333 18.25 10.7667 19.35 12.5 19.9ZM12.5 17C12.7833 17 13.0292 16.8958 13.2375 16.6875C13.4458 16.4792 13.55 16.2333 13.55 15.95C13.55 15.6667 13.4458 15.4208 13.2375 15.2125C13.0292 15.0042 12.7833 14.9 12.5 14.9C12.2167 14.9 11.9708 15.0042 11.7625 15.2125C11.5542 15.4208 11.45 15.6667 11.45 15.95C11.45 16.2333 11.5542 16.4792 11.7625 16.6875C11.9708 16.8958 12.2167 17 12.5 17ZM11.775 13.8H13.275V13.25C13.275 13.0667 13.3167 12.8917 13.4 12.725C13.5 12.4917 13.6333 12.2958 13.8 12.1375C13.9667 11.9792 14.1417 11.8167 14.325 11.65C14.6083 11.3667 14.8542 11.05 15.0625 10.7C15.2708 10.35 15.375 9.96667 15.375 9.55C15.375 8.8 15.0875 8.1875 14.5125 7.7125C13.9375 7.2375 13.2667 7 12.5 7C11.8333 7 11.2375 7.19167 10.7125 7.575C10.1875 7.95833 9.83333 8.46667 9.65 9.1L11 9.65C11.1 9.31667 11.2875 9.03333 11.5625 8.8C11.8375 8.56667 12.15 8.45 12.5 8.45C12.8667 8.45 13.1875 8.55833 13.4625 8.775C13.7375 8.99167 13.875 9.26667 13.875 9.6C13.875 9.88333 13.7875 10.1458 13.6125 10.3875C13.4375 10.6292 13.2417 10.85 13.025 11.05C12.825 11.2333 12.625 11.4208 12.425 11.6125C12.225 11.8042 12.0667 12.025 11.95 12.275C11.8333 12.5083 11.775 12.7542 11.775 13.0125V13.8Z" fill="#254D55"/>
</g>
</svg>
